# AST/ASF file generated using VICON BodyLanguage
# -----------------------------------------------
:version 1.10
:name VICON
:units
  mass 1.0
  length 0.45
  angle deg
:documentation
   .ast/.asf automatically generated from VICON data using
   VICON BodyBuilder and BodyLanguage model FoxedUp or BRILLIANT.MOD
:root
   order TX TY TZ RX RY RZ
   axis XYZ
   position 0 0 0  
   orientation 0 0 0 
:bonedata
  begin
     id 1 
     name lhipjoint
     direction 0.627412 -0.730575 0.26947 
     length 2.49821 
     axis 0 0 0  XYZ
  end
  begin
     id 2 
     name lfemur
     direction 0.34202 -0.939693 0  
     length 6.89165  
     axis 0 0 20  XYZ
    dof rx ry rz
    limits (-160.0 20.0)
           (-70.0 70.0)
           (-60.0 70.0)
  end
  begin
     id 3 
     name ltibia
     direction 0.34202 -0.939693 0   
     length 7.91287   
     axis 0 0 20   XYZ
    dof rx
    limits (-10.0 170.0)
  end
  begin
     id 4 
     name lfoot
     direction 0.0941675 -0.258723 0.96135   
     length 2.16919   
     axis -90 7.62852e-016 20   XYZ
    dof rx rz
    limits (-45.0 90.0)
           (-70.0 20.0)
  end
  begin
     id 5 
     name ltoes
     direction 1.5347e-011 -4.21941e-011 1   
     length 1.08535   
     axis -90 7.62852e-016 20   XYZ
    dof rx
    limits (-90.0 20.0)
  end
  begin
     id 6 
     name rhipjoint
     direction -0.614241 -0.740361 0.27308   
     length 2.46519  
     axis 0 0 0  XYZ 
  end
  begin
     id 7 
     name rfemur
     direction -0.34202 -0.939693 0   
     length 7.27512   
     axis 0 0 -20   XYZ
    dof rx ry rz
    limits (-160.0 20.0)
           (-70.0 70.0)
           (-70.0 60.0)
  end
  begin
     id 8 
     name rtibia
     direction -0.34202 -0.939693 0   
     length 7.89523   
     axis 0 0 -20   XYZ
    dof rx
    limits (-10.0 170.0)
 end
 begin
     id 9 
     name rfoot
     direction -0.0860444 -0.236405 0.967837   
     length 2.29534  
     axis -90 -7.62852e-016 -20   XYZ
    dof rx rz
    limits (-45.0 90.0)
           (-20.0 70.0)
  end
  begin
     id 10 
     name rtoes
     direction -1.53608e-011 -4.21861e-011 1   
     length 1.14915   
     axis -90 -7.62852e-016 -20   XYZ
    dof rx
    limits (-90.0 20.0)
  end
  begin
     id 11 
     name lowerback
     direction -0.00734074 0.997215 -0.0742143   
     length 2.13469   
     axis 0 0 0   XYZ
    dof rx ry rz
    limits (-20.0 45.0)
           (-30.0 30.0)
           (-30.0 30.0)
  end
  begin
     id 12 
     name upperback
     direction 0.0285728 0.99958 -0.00488656   
     length 2.13416   
     axis 0 0 0   XYZ
    dof rx ry rz
    limits (-20.0 45.0)
           (-30.0 30.0)
           (-30.0 30.0)
  end
  begin
     id 13 
     name thorax
     direction 0.0316844 0.999056 0.0297249   
     length 2.14463   
     axis 0 0 0   XYZ
    dof rx ry rz
    limits (-20.0 45.0)
           (-30.0 30.0)
           (-30.0 30.0)
  end
  begin
     id 14 
     name lowerneck
     direction -0.0281545 0.996802 0.0747864   
     length 1.79004   
     axis 0 0 0   XYZ
    dof rx ry rz
    limits (-20.0 45.0)
           (-30.0 30.0)
           (-30.0 30.0)
  end
  begin
     id 15 
     name upperneck
     direction -0.00100185 0.982732 -0.185031   
     length 1.79988   
     axis 0 0 0   XYZ
    dof rx ry rz
    limits (-20.0 45.0)
           (-30.0 30.0)
           (-30.0 30.0)
  end
  begin
     id 16
     name head
     direction 0.00403747 0.997539 -0.0700022  
     length 1.81696  
     axis 0 0 0   XYZ
    dof rx ry rz
    limits (-20.0 45.0)
           (-30.0 30.0)
           (-30.0 30.0)
  end
  begin
     id 17 
     name lclavicle
     direction 0.959882 0.242905 -0.140082  
     length 3.87755  
     axis 0 0 0   XYZ
    dof ry rz
    limits (-20.0 10.0)
           (0.0 20.0)
  end
  begin
     id 18 
     name lhumerus
     direction 1 -4.4895e-011 3.76166e-027   
     length 5.14601   
     axis 180 -30 -90   XYZ
    dof rx ry rz
    limits (-60.0 90.0)
           (-90.0 90.0)
           (-90.0 90.0)
  end
  begin
     id 19
     name lradius
     direction 1 -4.48966e-011 -3.24039e-027   
     length 3.64452   
     axis 180 -30 -90   XYZ
    dof rx
    limits (-10.0 170.0)
  end
  begin
     id 20
     name lwrist
     direction 1 -4.48999e-011 2.57119e-027   
     length 1.82226   
     axis -1.61769e-015 90 90   XYZ
    dof ry
    limits (-180.0 0.0)
 end
  begin
     id 21 
     name lhand
     direction 1 -4.48961e-011 5.13984e-027   
     length 0.56228   
     axis -3.27988e-015 90 90   XYZ
    dof rx rz
    limits (-90.0 90.0)
           (-45.0 45.0)
  end
  begin
     id 22 
     name lfingers
     direction 1 -4.48991e-011 1.02836e-026   
     length 0.453325   
     axis -6.5598e-015 90 90   XYZ
    dof rx
    limits (0.0 90.0)
  end
  begin
     id 23
     name lthumb
     direction 0.707107 -6.34956e-011 0.707107   
     length 0.650886   
     axis -90 45 2.19363e-014   XYZ
    dof rx rz
    limits (-45.0 45.0)
           (-45.0 45.0)
  end
  begin
     id 24 
     name rclavicle
     direction -0.929201 0.345171 -0.132073   
     length 3.55416  
     axis 0 0 0   XYZ 
    dof ry rz
    limits (-10.0 20.0)
           (-20.0 0.0)
  end
  begin
     id 25 
     name rhumerus
     direction -1 -4.48979e-011 4.53734e-027  
     length 5.33913   
     axis 180 30 90   XYZ
    dof rx ry rz
    limits (-90.0 60.0)
           (-90.0 90.0)
           (-90.0 90.0)
  end
  begin
     id 26 
     name rradius
     direction -1 -4.4896e-011 -2.24007e-027   
     length 3.56478   
     axis 180 30 90   XYZ
    dof rx
    limits (-10.0 170.0)
  end
  begin
     id 27 
     name rwrist
     direction -1 -4.48923e-011 2.56866e-027   
     length 1.78239   
     axis -1.61769e-015 -90 -90   XYZ
    dof ry
    limits (-180.0 0.0)
  end
  begin
     id 28
     name rhand
     direction -1 -4.48914e-011 5.13667e-027   
     length 0.857474   
     axis -3.27988e-015 -90 -90   XYZ
    dof rx rz
    limits (-90.0 90.0)
           (-45.0 45.0)
  end
  begin
     id 29
     name rfingers
     direction -1 -4.49112e-011 1.02998e-026   
     length 0.691318   
     axis -6.5598e-015 -90 -90   XYZ
    dof rx
    limits (0.0 90.0)
  end
  begin
     id 30
     name rthumb
     direction -0.707107 -6.34979e-011 0.707107   
     length 0.992598   
     axis -90 -45 -2.19363e-014   XYZ
    dof rx rz
    limits (-45.0 45.0)
           (-45.0 45.0)
  end
:hierarchy
  begin
    root lhipjoint rhipjoint lowerback
    lhipjoint lfemur
    lfemur ltibia
    ltibia lfoot
    lfoot ltoes
    rhipjoint rfemur
    rfemur rtibia
    rtibia rfoot
    rfoot rtoes
    lowerback upperback
    upperback thorax
    thorax lowerneck lclavicle rclavicle
    lowerneck upperneck
    upperneck head
    lclavicle lhumerus
    lhumerus lradius
    lradius lwrist
    lwrist lhand lthumb
    lhand lfingers
    rclavicle rhumerus
    rhumerus rradius
    rradius rwrist
    rwrist rhand rthumb
    rhand rfingers
  end

#!OML:ASF F:\VICON\USERDATA\INSTALL\Justin4\Justin4.ASF
:FULLY-SPECIFIED
:DEGREES
2523
root -2.17611 16.9055 14.7345 3.21388 2.31513 3.15342
lowerback 13.9241 0.919593 -3.82947
upperback 3.04231 0.508354 -3.00991
thorax -4.59778 0.284945 -1.09011
lowerneck -10.9929 0.830224 -7.37337
upperneck 7.68628 2.34955 -1.12711
head 4.02906 0.873149 0.991474
rclavicle 5.76476e-015 5.56597e-015
rhumerus -15.6393 -7.55768 -75.7337
rradius 138.906
rwrist -16.0715
rhand -7.5008 24.8475
rfingers 7.12502
rthumb 18.3891 -364.303
lclavicle 5.76476e-015 5.56597e-015
lhumerus -1.21375 -7.62322 84.4348
lradius 131.319
lwrist 8.23694
lhand -4.03677 11.3587
lfingers 7.12502
lthumb 21.7187 40.1603
rfemur -20.446 -6.64537 9.86867
rtibia 61.0523
rfoot -15.195 -13.7524
rtoes -11.6117
lfemur -14.7762 -1.00316 -4.8321
ltibia 40.6947
lfoot -8.718 -1.96176
ltoes -45.7124
2524
root -2.10808 16.7896 14.745 3.18706 2.88385 3.53762
lowerback 14.2719 0.917228 -3.97729
upperback 2.96036 0.439112 -3.37068
thorax -4.8721 0.255062 -1.38288
lowerneck -10.5511 0.83229 -7.35213
upperneck 7.25558 2.30849 -1.17763
head 4.24889 0.857648 1.08172
rclavicle -8.94531e-015 1.51076e-014
rhumerus -16.6648 -7.6536 -75.8296
rradius 139.444
rwrist -16.593
rhand -7.66542 25.9436
rfingers 7.12502
rthumb 18.2307 -363.222
lclavicle -8.94531e-015 1.51076e-014
lhumerus -1.76955 -7.51715 84.6675
lradius 131.619
lwrist 8.53158
lhand -3.24978 11.733
lfingers 7.12502
lthumb 22.4742 40.4453
rfemur -20.9687 -7.08695 8.96741
rtibia 62.8075
rfoot -15.8435 -13.3842
rtoes -14.5376
lfemur -15.0417 -0.224883 -5.2839
ltibia 41.3533
lfoot -10.6281 -2.6199
ltoes -44.6211
2525
root -2.05152 16.6664 14.7484 3.15325 3.43196 3.80769
lowerback 14.6534 0.956556 -4.09845
upperback 2.91836 0.427495 -3.69961
thorax -5.12348 0.252682 -1.66904
lowerneck -9.94134 0.990856 -7.08078
upperneck 7.06439 2.42566 -1.23536
head 4.05416 0.931345 1.00947
rclavicle -2.18663e-014 5.88403e-014
rhumerus -17.5487 -8.04753 -75.9077
rradius 140.05
rwrist -16.8667
rhand -6.9525 25.8458
rfingers 7.12502
rthumb 18.9165 -363.254
lclavicle -2.18663e-014 5.88403e-014
lhumerus -2.07012 -7.58292 84.9106
lradius 131.642
lwrist 9.08789
lhand -2.82508 12.1052
lfingers 7.12502
lthumb 22.8818 40.7676
rfemur -21.725 -7.36716 8.11977
rtibia 64.8436
rfoot -15.9355 -12.7208
rtoes -18.2268
lfemur -15.4487 0.849647 -5.58776
ltibia 42.2017
lfoot -12.5013 -3.44124
ltoes -43.5888
2526
root -2.00648 16.5441 14.7469 3.13991 4.10348 4.20534
lowerback 14.9943 1.00618 -4.44503
upperback 3.00729 0.404147 -4.00649
thorax -5.21512 0.245998 -1.80086
lowerneck -9.82665 0.975169 -6.79271
upperneck 7.00563 2.3522 -1.22446
head 4.01385 0.906712 0.954726
rclavicle 1.76918e-014 3.26007e-014
rhumerus -18.2451 -8.41069 -76.0186
rradius 140.637
rwrist -16.8583
rhand -6.56258 25.551
rfingers 7.12502
rthumb 19.2915 -363.512
lclavicle 1.76918e-014 3.26007e-014
lhumerus -1.94748 -7.77656 85.2246
lradius 131.21
lwrist 9.57545
lhand -2.8674 12.2025
lfingers 7.12502
lthumb 22.8412 40.8699
rfemur -22.6489 -7.67424 7.05521
rtibia 67.0964
rfoot -15.5596 -11.7542
rtoes -21.2097
lfemur -16.0188 1.81606 -6.06605
ltibia 43.1547
lfoot -14.2614 -4.19767
ltoes -42.9261
2527
root -1.96132 16.4228 14.7426 3.06921 4.83946 5.05036
lowerback 15.5934 1.06701 -5.17078
upperback 3.08089 0.304116 -4.40489
thorax -5.46408 0.209452 -1.80895
lowerneck -10.6316 0.945131 -7.05579
upperneck 8.04003 2.389 -0.664547
head 4.07307 0.919783 1.08568
rclavicle -3.77691e-015 -2.46493e-014
rhumerus -19.0586 -8.64699 -76.0871
rradius 141.232
rwrist -16.291
rhand -6.75952 25.0386
rfingers 7.12502
rthumb 19.1021 -364.043
lclavicle -3.77691e-015 -2.46493e-014
lhumerus -2.01692 -8.01583 85.5131
lradius 130.812
lwrist 9.90355
lhand -3.1756 12.102
lfingers 7.12502
lthumb 22.5454 40.8056
rfemur -23.4668 -8.21281 5.28697
rtibia 69.451
rfoot -15.1732 -10.0003
rtoes -21.9698
lfemur -16.5127 2.52143 -7.14646
ltibia 44.1351
lfoot -15.8601 -4.1531
ltoes -42.5352
2528
root -1.92624 16.3221 14.7403 2.94212 5.54902 5.5994
lowerback 16.4353 1.12266 -5.59509
upperback 3.06014 0.211866 -4.73022
thorax -5.94424 0.177204 -1.91932
lowerneck -12.6609 1.08896 -7.86938
upperneck 10.0019 2.82948 0.400661
head 4.97218 1.10772 1.61317
rclavicle 1.92821e-014 1.11319e-014
rhumerus -20.0033 -8.91792 -76.053
rradius 141.753
rwrist -15.5003
rhand -7.00282 24.4354
rfingers 7.12502
rthumb 18.8681 -364.67
lclavicle 1.92821e-014 1.11319e-014
lhumerus -2.35939 -8.25985 85.7018
lradius 130.566
lwrist 10.2408
lhand -3.37211 11.9092
lfingers 7.12502
lthumb 22.3568 40.6356
rfemur -24.3584 -8.67075 3.86358
rtibia 71.6971
rfoot -14.3049 -7.82786
rtoes -21.508
lfemur -16.9397 3.05617 -7.88194
ltibia 45.0275
lfoot -17.0673 -3.81135
ltoes -41.6176
